<svg width="54" height="54" viewBox="0 0 54 54" fill="none" xmlns="http://www.w3.org/2000/svg">
<g id="Design services" clip-path="url(#clip0_76_349)">
<g id="Group">
<g id="Group_2">
<path id="Vector" d="M47.1825 16.3573C48.06 15.4798 48.06 14.0623 47.1825 13.1848L40.815 6.8173C39.9375 5.9398 38.52 5.9398 37.6425 6.8173L27.54 16.9198L18.7875 8.1673C17.0325 6.41231 14.175 6.41231 12.42 8.1673L8.145 12.4423C6.39 14.1973 6.39 17.0548 8.145 18.8098L16.8975 27.5623L6.75 37.7098V47.2498H16.29L26.46 37.0798L35.2125 45.8323C37.35 47.9698 40.23 47.1823 41.58 45.8323L45.855 41.5573C47.61 39.8023 47.61 36.9448 45.855 35.1898L37.1025 26.4373L47.1825 16.3573ZM11.34 15.6148L15.5925 11.3398L18.45 14.1973L15.795 16.8748L18.9675 20.0473L21.645 17.3698L24.345 20.0698L20.07 24.3448L11.34 15.6148ZM36.6075 32.3548L33.93 35.0323L37.1025 38.2048L39.78 35.5273L42.6375 38.3848L38.3625 42.6598L29.61 33.9073L33.885 29.6323L36.6075 32.3548ZM14.4225 42.7498H11.25V39.5773L32.8725 17.9548L35.7975 20.8798L36.045 21.1273L14.4225 42.7498ZM36.045 14.7598L39.2175 11.5873L42.39 14.7598L39.2175 17.9323L36.045 14.7598Z" fill="white"/>
</g>
</g>
</g>
<defs>
<clipPath id="clip0_76_349">
<rect width="54" height="54" fill="white"/>
</clipPath>
</defs>
</svg>
