<svg width="55" height="55" viewBox="0 0 55 55" fill="none" xmlns="http://www.w3.org/2000/svg">
<path d="M45.8333 50.4168H14.8958C12.7686 50.4168 10.7284 49.5718 9.22425 48.0676C7.72005 46.5634 6.875 44.5233 6.875 42.396V11.4585C6.875 9.63513 7.59933 7.88645 8.88864 6.59714C10.178 5.30782 11.9266 4.5835 13.75 4.5835H45.8333C46.4411 4.5835 47.024 4.82494 47.4538 5.25471C47.8836 5.68448 48.125 6.26737 48.125 6.87516V48.1252C48.125 48.7329 47.8836 49.3158 47.4538 49.7456C47.024 50.1754 46.4411 50.4168 45.8333 50.4168ZM43.5417 45.8335V38.9585H14.8958C13.9842 38.9585 13.1098 39.3207 12.4652 39.9653C11.8205 40.61 11.4583 41.4843 11.4583 42.396C11.4583 43.3077 11.8205 44.182 12.4652 44.8267C13.1098 45.4713 13.9842 45.8335 14.8958 45.8335H43.5417Z" fill="white"/>
</svg>
