<svg width="55" height="55" viewBox="0 0 55 55" fill="none" xmlns="http://www.w3.org/2000/svg">
<path d="M27.3625 6.875C24.954 6.90697 22.6551 7.88734 20.9648 9.60343C19.2744 11.3195 18.3289 13.6329 18.3334 16.0417C18.1959 19.8 17.8979 23.9938 16.1104 26.5604C22.2521 30.2958 27.5 29.7917 27.5 29.7917C27.5 29.7917 32.7479 30.2958 38.8896 26.5604C36.9417 23.4208 36.5292 19.5708 36.6667 16.0417C36.6667 10.9771 32.5646 6.875 27.5 6.875H27.3625ZM20.3042 30.525C13.75 31.9229 9.16669 35.1771 9.16669 38.9583V48.125H27.5L20.625 38.9583H14.8959M27.5 48.125L31.5792 31.6479C31.5792 31.6479 29.7917 32.0833 27.5 32.0833C25.2084 32.0833 23.4209 31.6479 23.4209 31.6479M27.5 48.125H45.8334V38.9583C45.8334 35.1771 41.25 31.9229 34.6959 30.525L40.1042 38.9583H34.375L27.5 48.125Z" fill="white"/>
</svg>
