<svg width="54" height="54" viewBox="0 0 54 54" fill="none" xmlns="http://www.w3.org/2000/svg">
<g id="Photo camera" clip-path="url(#clip0_76_366)">
<path id="Vector" d="M31.77 9L35.8875 13.5H45V40.5H9V13.5H18.1125L22.23 9H31.77ZM33.75 4.5H20.25L16.1325 9H9C6.525 9 4.5 11.025 4.5 13.5V40.5C4.5 42.975 6.525 45 9 45H45C47.475 45 49.5 42.975 49.5 40.5V13.5C49.5 11.025 47.475 9 45 9H37.8675L33.75 4.5ZM27 20.25C30.7125 20.25 33.75 23.2875 33.75 27C33.75 30.7125 30.7125 33.75 27 33.75C23.2875 33.75 20.25 30.7125 20.25 27C20.25 23.2875 23.2875 20.25 27 20.25ZM27 15.75C20.79 15.75 15.75 20.79 15.75 27C15.75 33.21 20.79 38.25 27 38.25C33.21 38.25 38.25 33.21 38.25 27C38.25 20.79 33.21 15.75 27 15.75Z" fill="white"/>
</g>
<defs>
<clipPath id="clip0_76_366">
<rect width="54" height="54" fill="white"/>
</clipPath>
</defs>
</svg>
