<svg width="54" height="54" viewBox="0 0 54 54" fill="none" xmlns="http://www.w3.org/2000/svg">
<g id="Newspaper" clip-path="url(#clip0_76_358)">
<g id="Group">
<path id="Vector" d="M49.5 6.75L45.7425 10.5075L42.0075 6.75L38.25 10.5075L34.4925 6.75L30.7575 10.5075L27 6.75L23.2425 10.5075L19.5075 6.75L15.75 10.5075L11.9925 6.75L8.2575 10.5075L4.5 6.75V42.75C4.5 45.225 6.525 47.25 9 47.25H45C47.475 47.25 49.5 45.225 49.5 42.75V6.75ZM24.75 42.75H9V29.25H24.75V42.75ZM45 42.75H29.25V38.25H45V42.75ZM45 33.75H29.25V29.25H45V33.75ZM45 24.75H9V18H45V24.75Z" fill="white"/>
</g>
</g>
<defs>
<clipPath id="clip0_76_358">
<rect width="54" height="54" fill="white"/>
</clipPath>
</defs>
</svg>
