<svg width="54" height="54" viewBox="0 0 54 54" fill="none" xmlns="http://www.w3.org/2000/svg">
<g id="Build circle" clip-path="url(#clip0_76_372)">
<g id="Group">
<g id="Group_2">
<path id="Vector" fill-rule="evenodd" clip-rule="evenodd" d="M27 4.5C14.58 4.5 4.5 14.58 4.5 27C4.5 39.42 14.58 49.5 27 49.5C39.42 49.5 49.5 39.42 49.5 27C49.5 14.58 39.42 4.5 27 4.5ZM27 45C17.0775 45 9 36.9225 9 27C9 17.0775 17.0775 9 27 9C36.9225 9 45 17.0775 45 27C45 36.9225 36.9225 45 27 45Z" fill="white"/>
<path id="Vector_2" fill-rule="evenodd" clip-rule="evenodd" d="M30.3524 25.6049C31.3199 22.8599 30.7349 19.6649 28.5299 17.4599C26.0324 14.9624 22.2524 14.5349 19.3049 16.1324L24.5924 21.4199L21.4199 24.5924L16.1324 19.3049C14.5349 22.2749 14.9624 26.0324 17.4599 28.5299C19.6649 30.7349 22.8599 31.3199 25.6049 30.3524L33.2774 38.0249C33.7274 38.4749 34.4249 38.4749 34.8749 38.0249L38.0249 34.8749C38.4749 34.4249 38.4749 33.7274 38.0249 33.2774L30.3524 25.6049Z" fill="white"/>
</g>
</g>
</g>
<defs>
<clipPath id="clip0_76_372">
<rect width="54" height="54" fill="white"/>
</clipPath>
</defs>
</svg>
