<svg width="55" height="55" viewBox="0 0 55 55" fill="none" xmlns="http://www.w3.org/2000/svg">
<path d="M40.1042 27.5C39.1925 27.5 38.3181 27.1378 37.6735 26.4932C37.0288 25.8485 36.6667 24.9742 36.6667 24.0625C36.6667 23.1508 37.0288 22.2765 37.6735 21.6318C38.3181 20.9872 39.1925 20.625 40.1042 20.625C41.0159 20.625 41.8902 20.9872 42.5348 21.6318C43.1795 22.2765 43.5417 23.1508 43.5417 24.0625C43.5417 24.9742 43.1795 25.8485 42.5348 26.4932C41.8902 27.1378 41.0159 27.5 40.1042 27.5ZM33.2292 18.3333C32.3175 18.3333 31.4431 17.9712 30.7985 17.3265C30.1538 16.6819 29.7917 15.8075 29.7917 14.8958C29.7917 13.9842 30.1538 13.1098 30.7985 12.4652C31.4431 11.8205 32.3175 11.4583 33.2292 11.4583C34.1409 11.4583 35.0152 11.8205 35.6598 12.4652C36.3045 13.1098 36.6667 13.9842 36.6667 14.8958C36.6667 15.8075 36.3045 16.6819 35.6598 17.3265C35.0152 17.9712 34.1409 18.3333 33.2292 18.3333ZM21.7708 18.3333C20.8592 18.3333 19.9848 17.9712 19.3402 17.3265C18.6955 16.6819 18.3333 15.8075 18.3333 14.8958C18.3333 13.9842 18.6955 13.1098 19.3402 12.4652C19.9848 11.8205 20.8592 11.4583 21.7708 11.4583C22.6825 11.4583 23.5569 11.8205 24.2015 12.4652C24.8462 13.1098 25.2083 13.9842 25.2083 14.8958C25.2083 15.8075 24.8462 16.6819 24.2015 17.3265C23.5569 17.9712 22.6825 18.3333 21.7708 18.3333ZM14.8958 27.5C13.9842 27.5 13.1098 27.1378 12.4652 26.4932C11.8205 25.8485 11.4583 24.9742 11.4583 24.0625C11.4583 23.1508 11.8205 22.2765 12.4652 21.6318C13.1098 20.9872 13.9842 20.625 14.8958 20.625C15.8075 20.625 16.6819 20.9872 17.3265 21.6318C17.9712 22.2765 18.3333 23.1508 18.3333 24.0625C18.3333 24.9742 17.9712 25.8485 17.3265 26.4932C16.6819 27.1378 15.8075 27.5 14.8958 27.5ZM27.5 6.875C22.0299 6.875 16.7839 9.04798 12.9159 12.9159C9.04798 16.7839 6.875 22.0299 6.875 27.5C6.875 32.9701 9.04798 38.2161 12.9159 42.0841C16.7839 45.952 22.0299 48.125 27.5 48.125C28.4117 48.125 29.286 47.7628 29.9307 47.1182C30.5753 46.4735 30.9375 45.5992 30.9375 44.6875C30.9375 43.7938 30.5938 42.9917 30.0438 42.3958C29.5167 41.7771 29.1729 40.975 29.1729 40.1042C29.1729 39.1925 29.5351 38.3181 30.1797 37.6735C30.8244 37.0288 31.6987 36.6667 32.6104 36.6667H36.6667C39.7056 36.6667 42.6201 35.4595 44.7689 33.3106C46.9178 31.1617 48.125 28.2473 48.125 25.2083C48.125 15.0792 38.8896 6.875 27.5 6.875Z" fill="white"/>
</svg>
