<svg width="70" height="51" viewBox="0 0 70 51" fill="none" xmlns="http://www.w3.org/2000/svg">
<path d="M57.5828 50.4C61.4495 50.4 64.5161 49.1333 66.7828 46.6C68.9161 44.0667 69.9828 41 69.9828 37.4V35.6C69.9828 32.6667 69.4495 29.6 68.3828 26.4C67.3161 23.2 65.9161 20 64.1828 16.8C62.3161 13.6 60.1828 10.6 57.7828 7.79999C55.2495 4.99999 52.5828 2.53332 49.7828 0.399995H39.7828C44.3161 4.39999 48.1161 8.59999 51.1828 13C54.2495 17.2667 56.2495 21.3333 57.1828 25.2H56.7828C53.0495 25.2 50.1828 26.4 48.1828 28.8C46.1828 31.2 45.1828 33.9333 45.1828 37V38.2C45.1828 41.6667 46.3161 44.6 48.5828 47C50.8495 49.2667 53.8495 50.4 57.5828 50.4ZM18.7828 50.4C22.6495 50.4 25.7161 49.1333 27.9828 46.6C30.1161 44.0667 31.1828 41 31.1828 37.4V35.6C31.1828 32.6667 30.6495 29.6 29.5828 26.4C28.5161 23.2 27.1161 20 25.3828 16.8C23.5161 13.6 21.3828 10.6 18.9828 7.79999C16.4495 4.99999 13.7828 2.53332 10.9828 0.399995H0.982807C5.51614 4.39999 9.31614 8.59999 12.3828 13C15.4495 17.2667 17.4495 21.3333 18.3828 25.2H17.9828C14.2495 25.2 11.3828 26.4 9.38281 28.8C7.38281 31.2 6.38281 33.9333 6.38281 37V38.2C6.38281 41.6667 7.51614 44.6 9.78281 47C12.0495 49.2667 15.0495 50.4 18.7828 50.4Z" fill="#5CA6FF"/>
</svg>
