<svg width="22" height="23" viewBox="0 0 22 23" fill="none" xmlns="http://www.w3.org/2000/svg">
<path d="M15.7233 14.3365H14.7296L14.3774 13.9969C15.6101 12.5629 16.3522 10.7013 16.3522 8.6761C16.3522 4.16038 12.6918 0.5 8.1761 0.5C3.66038 0.5 0 4.16038 0 8.6761C0 13.1918 3.66038 16.8522 8.1761 16.8522C10.2013 16.8522 12.0629 16.1101 13.4969 14.8774L13.8365 15.2296V16.2233L20.1258 22.5L22 20.6258L15.7233 14.3365ZM8.1761 14.3365C5.04403 14.3365 2.51572 11.8082 2.51572 8.6761C2.51572 5.54403 5.04403 3.01572 8.1761 3.01572C11.3082 3.01572 13.8365 5.54403 13.8365 8.6761C13.8365 11.8082 11.3082 14.3365 8.1761 14.3365Z" fill="#00356B"/>
</svg>
