<?xml version="1.0" encoding="UTF-8"?>
<svg id="Layer_1" data-name="Layer 1" xmlns="http://www.w3.org/2000/svg" viewBox="0 0 104.42 45.03">
  <defs>
    <style>
      .cls-1 {
        fill: #1d3869;
      }
    </style>
  </defs>
  <path class="cls-1" d="M104.42,39.47c-2.91,2.6-6.18,5.11-10.23,5.42-17.8,1.36-17.66-24.48-3.41-27.73,4.77-1.09,10.69.11,12.5,5.18.18.49.59,1.88.59,2.33v2.57l-17.4-.14c-.35,3.37-.29,6.73,1.47,9.72,2.55,4.32,8.12,5.77,12.54,3.37,1.09-.59,1.95-1.52,3.03-2.12l.91,1.26v.14ZM98.15,25.29c-.12-3.8-2.64-7.58-6.88-6.25-2.57.81-4.07,3.83-4.53,6.31l11.42-.07Z"/>
  <path class="cls-1" d="M73.93,0c0,.34.43.8.34,1.11-.14.48-1.47,1.7-1.8,2.22l-.08,37.46c.2,1.68,3.23,2.23,4.6,2.15v1.53h-14.34v-1.53c1.65,0,3.6-.31,4.31-2.02V7.43c.1-2.81-2.56-2.99-4.74-3.18l-.11-1.1,11.54-3.15h.28Z"/>
  <path class="cls-1" d="M18.1,3.61l-.13,1.61c-1.47.09-3.04.24-4.37.92-.17.09-.96.55-.93.73l10.1,17.17,9.82-17.17c-1.63-1.24-3.71-1.56-5.72-1.66l-.13-1.61h15.45l-.13,1.61c-4.98-.07-6.66,3.19-8.89,6.83-3.1,5.04-5.97,10.23-9.05,15.29l.04,12.14c1.22,2.78,4.45,3.23,7.17,3.33v1.67H10.58v-1.67c1.66.01,6.84-.57,7.44-2.37l.04-12.68c-3.96-5.98-7.13-13-11.19-18.85-1.71-2.46-3.69-3.57-6.75-3.69l-.13-1.61h18.1Z"/>
  <path class="cls-1" d="M62.09,39.61c-.07.52.14,1.34-.07,1.8-.06.14-1.24,1.28-1.46,1.46-1.08.92-2.84,2.01-4.26,2.13-2.5.22-5.48-1.29-5.62-4.01-2.88,2.73-6.45,5.08-10.58,3.54-4.47-1.66-4.29-6.8-2.38-10.4l12.93-4.7c-.05-2.84.63-8.15-2.27-9.85-2.27-1.33-4.16-.18-5.05,2.05-.38.95-.35,1.89-.69,2.82l-5.61.97c.12-2.53,2.34-4.92,4.35-6.28,4.96-3.38,13.84-3.96,14.84,3.59.47,3.53-.08,8.66-.13,12.35-.02,1.68-.4,5.02,1.27,5.97,1.78,1.02,3.41-.39,4.72-1.45ZM50.68,31.13l-7.72,3.48c-.97,3.49-.53,8,4.25,7.02,1.21-.25,2.29-1.14,3.3-1.77l.17-8.73Z"/>
</svg>